<svg width="135" height="135" viewBox="0 0 135 135" fill="none" xmlns="http://www.w3.org/2000/svg">
<circle cx="67.5" cy="67.5" r="67.5" fill="#FF0000"/>
<path d="M48.976 82.024L29.136 71.912C28.496 71.5707 28.0053 71.1013 27.664 70.504C27.3653 69.864 27.2373 69.2667 27.28 68.712C27.2373 68.1147 27.3867 67.5173 27.728 66.92C28.0693 66.28 28.5813 65.7893 29.264 65.448L48.976 55.4C50.2133 54.8027 51.3227 54.632 52.304 54.888C53.2853 55.144 54.0533 55.8907 54.608 57.128C55.1627 58.3227 55.2267 59.3893 54.8 60.328C54.3733 61.224 53.5413 61.9707 52.304 62.568L40.016 68.712L52.304 74.856C53.5413 75.4533 54.3733 76.2 54.8 77.096C55.2267 77.992 55.1627 79.0587 54.608 80.296C54.0533 81.4907 53.2853 82.2373 52.304 82.536C51.3227 82.792 50.2133 82.6213 48.976 82.024ZM59.7045 90.216C59.7045 90.0027 59.7045 89.7893 59.7045 89.576C59.7472 89.4053 59.7898 89.2347 59.8325 89.064L71.1605 42.856C71.5445 41.3627 72.2058 40.2747 73.1445 39.592C74.1258 38.8667 75.1285 38.504 76.1525 38.504C77.2618 38.504 78.2218 38.8667 79.0325 39.592C79.8858 40.2747 80.3125 41.256 80.3125 42.536C80.3125 42.7067 80.3125 42.92 80.3125 43.176C80.3125 43.3893 80.2698 43.6027 80.1845 43.816C79.6725 46.12 79.0325 48.7867 78.2645 51.816C77.5392 54.8027 76.7498 57.9813 75.8965 61.352C75.0858 64.7227 74.2538 68.1147 73.4005 71.528C72.5472 74.9413 71.7152 78.2053 70.9045 81.32C70.1365 84.4347 69.4538 87.2507 68.8565 89.768C68.4725 91.304 67.8112 92.4133 66.8725 93.096C65.9338 93.7787 64.9525 94.12 63.9285 94.12C62.8618 94.12 61.8805 93.7573 60.9845 93.032C60.1312 92.3493 59.7045 91.4107 59.7045 90.216ZM86.6725 82.024C85.4778 82.6213 84.3898 82.792 83.4085 82.536C82.4272 82.2373 81.6378 81.4907 81.0405 80.296C80.4858 79.0587 80.4218 77.992 80.8485 77.096C81.3178 76.2 82.1498 75.4533 83.3445 74.856L95.6325 68.712L83.3445 62.568C82.1498 61.9707 81.3178 61.224 80.8485 60.328C80.4218 59.3893 80.4858 58.3227 81.0405 57.128C81.6378 55.8907 82.4272 55.144 83.4085 54.888C84.3898 54.632 85.4778 54.8027 86.6725 55.4L106.385 65.448C107.11 65.7893 107.622 66.28 107.921 66.92C108.262 67.5173 108.411 68.1147 108.369 68.712C108.411 69.2667 108.262 69.864 107.921 70.504C107.622 71.1013 107.153 71.5707 106.513 71.912L86.6725 82.024Z" fill="white"/>
</svg>
